<svg width="109" height="19" viewBox="0 0 109 19" fill="none" xmlns="http://www.w3.org/2000/svg">
<path d="M5.80078 11.6484L4.11328 13.5V18H0V0.9375H4.11328V8.46094L5.54297 6.29297L9.22266 0.9375H14.3086L8.54297 8.48438L14.3086 18H9.43359L5.80078 11.6484Z" fill="white"/>
<path d="M19.3359 18H15.375V5.32031H19.3359V18ZM15.1406 2.05078C15.1406 1.48828 15.3438 1.02734 15.75 0.667969C16.1562 0.308594 16.6836 0.128906 17.332 0.128906C17.9805 0.128906 18.5078 0.308594 18.9141 0.667969C19.3203 1.02734 19.5234 1.48828 19.5234 2.05078C19.5234 2.61328 19.3203 3.07422 18.9141 3.43359C18.5078 3.79297 17.9805 3.97266 17.332 3.97266C16.6836 3.97266 16.1562 3.79297 15.75 3.43359C15.3438 3.07422 15.1406 2.61328 15.1406 2.05078Z" fill="white"/>
<path d="M25.4062 5.32031L25.5352 6.80859C26.4102 5.66016 27.6172 5.08594 29.1562 5.08594C30.4766 5.08594 31.4609 5.48047 32.1094 6.26953C32.7656 7.05859 33.1055 8.24609 33.1289 9.83203V18H29.168V9.99609C29.168 9.35547 29.0391 8.88672 28.7812 8.58984C28.5234 8.28516 28.0547 8.13281 27.375 8.13281C26.6016 8.13281 26.0273 8.4375 25.6523 9.04688V18H21.7031V5.32031H25.4062Z" fill="white"/>
<path d="M34.8281 11.543C34.8281 10.2773 35.0742 9.15234 35.5664 8.16797C36.0586 7.17578 36.7656 6.41406 37.6875 5.88281C38.6094 5.35156 39.6914 5.08594 40.9336 5.08594C42.832 5.08594 44.3281 5.67578 45.4219 6.85547C46.5156 8.02734 47.0625 9.625 47.0625 11.6484V11.7891C47.0625 13.7656 46.5117 15.3359 45.4102 16.5C44.3164 17.6562 42.832 18.2344 40.957 18.2344C39.1523 18.2344 37.7031 17.6953 36.6094 16.6172C35.5156 15.5312 34.9258 14.0625 34.8398 12.2109L34.8281 11.543ZM38.7773 11.7891C38.7773 12.9609 38.9609 13.8203 39.3281 14.3672C39.6953 14.9141 40.2383 15.1875 40.957 15.1875C42.3633 15.1875 43.082 14.1055 43.1133 11.9414V11.543C43.1133 9.26953 42.3867 8.13281 40.9336 8.13281C39.6133 8.13281 38.8984 9.11328 38.7891 11.0742L38.7773 11.7891Z" fill="white"/>
<path d="M53.0977 12.2109V18H48.9844V0.9375H55.793C57.0977 0.9375 58.25 1.17969 59.25 1.66406C60.2578 2.14062 61.0352 2.82422 61.582 3.71484C62.1367 4.59766 62.4141 5.60156 62.4141 6.72656C62.4141 8.39062 61.8164 9.72266 60.6211 10.7227C59.4336 11.7148 57.8008 12.2109 55.7227 12.2109H53.0977ZM53.0977 9.03516H55.793C56.5898 9.03516 57.1953 8.83594 57.6094 8.4375C58.0312 8.03906 58.2422 7.47656 58.2422 6.75C58.2422 5.95312 58.0273 5.31641 57.5977 4.83984C57.168 4.36328 56.582 4.12109 55.8398 4.11328H53.0977V9.03516Z" fill="white"/>
<path d="M71.9883 16.6289C71.1523 17.6992 70.0234 18.2344 68.6016 18.2344C67.2109 18.2344 66.1562 17.832 65.4375 17.0273C64.7266 16.2148 64.3711 15.0508 64.3711 13.5352V5.32031H68.3203V13.5586C68.3203 14.6445 68.8477 15.1875 69.9023 15.1875C70.8086 15.1875 71.4531 14.8633 71.8359 14.2148V5.32031H75.8086V18H72.1055L71.9883 16.6289Z" fill="white"/>
<path d="M82.1484 18H78.1875V0H82.1484V18Z" fill="white"/>
<path d="M91.2305 14.4375C91.2305 14.1016 91.0547 13.832 90.7031 13.6289C90.3516 13.4258 89.6836 13.2148 88.6992 12.9961C87.7148 12.7773 86.9023 12.4922 86.2617 12.1406C85.6211 11.7812 85.1328 11.3477 84.7969 10.8398C84.4609 10.332 84.293 9.75 84.293 9.09375C84.293 7.92969 84.7734 6.97266 85.7344 6.22266C86.6953 5.46484 87.9531 5.08594 89.5078 5.08594C91.1797 5.08594 92.5234 5.46484 93.5391 6.22266C94.5547 6.98047 95.0625 7.97656 95.0625 9.21094H91.1016C91.1016 8.19531 90.5664 7.6875 89.4961 7.6875C89.082 7.6875 88.7344 7.80469 88.4531 8.03906C88.1719 8.26562 88.0312 8.55078 88.0312 8.89453C88.0312 9.24609 88.2031 9.53125 88.5469 9.75C88.8906 9.96875 89.4375 10.1484 90.1875 10.2891C90.9453 10.4297 91.6094 10.5977 92.1797 10.793C94.0859 11.4492 95.0391 12.625 95.0391 14.3203C95.0391 15.4766 94.5234 16.418 93.4922 17.1445C92.4688 17.8711 91.1406 18.2344 89.5078 18.2344C88.4219 18.2344 87.4531 18.0391 86.6016 17.6484C85.75 17.2578 85.0859 16.7266 84.6094 16.0547C84.1328 15.3828 83.8945 14.6758 83.8945 13.9336H87.5859C87.6016 14.5195 87.7969 14.9492 88.1719 15.2227C88.5469 15.4883 89.0273 15.6211 89.6133 15.6211C90.1523 15.6211 90.5547 15.5117 90.8203 15.293C91.0938 15.0742 91.2305 14.7891 91.2305 14.4375Z" fill="white"/>
<path d="M103.031 18.2344C101.086 18.2344 99.5117 17.6562 98.3086 16.5C97.1055 15.3359 96.5039 13.8242 96.5039 11.9648V11.6367C96.5039 10.3398 96.7422 9.19531 97.2188 8.20312C97.7031 7.21094 98.4062 6.44531 99.3281 5.90625C100.25 5.35938 101.344 5.08594 102.609 5.08594C104.391 5.08594 105.797 5.64062 106.828 6.75C107.859 7.85156 108.375 9.39062 108.375 11.3672V12.9023H100.523C100.664 13.6133 100.973 14.1719 101.449 14.5781C101.926 14.9844 102.543 15.1875 103.301 15.1875C104.551 15.1875 105.527 14.75 106.23 13.875L108.035 16.0078C107.543 16.6875 106.844 17.2305 105.938 17.6367C105.039 18.0352 104.07 18.2344 103.031 18.2344ZM102.586 8.13281C101.43 8.13281 100.742 8.89844 100.523 10.4297H104.508V10.125C104.523 9.49219 104.363 9.00391 104.027 8.66016C103.691 8.30859 103.211 8.13281 102.586 8.13281Z" fill="white"/>
</svg>
